<svg width="22" height="22" viewBox="0 0 22 22" fill="none" xmlns="http://www.w3.org/2000/svg">
<path d="M15.1012 8.3129C15.4917 7.92237 15.4917 7.28921 15.1012 6.89868C14.7107 6.50816 14.0775 6.50816 13.687 6.89868L15.1012 8.3129ZM6.89877 13.6869C6.50825 14.0774 6.50825 14.7106 6.89877 15.1011C7.2893 15.4916 7.92246 15.4916 8.31299 15.1011L6.89877 13.6869ZM13.687 15.1011C14.0775 15.4916 14.7107 15.4916 15.1012 15.1011C15.4917 14.7106 15.4917 14.0774 15.1012 13.6869L13.687 15.1011ZM8.31299 6.89868C7.92246 6.50816 7.2893 6.50816 6.89877 6.89868C6.50825 7.28921 6.50825 7.92237 6.89877 8.3129L8.31299 6.89868ZM19.6 10.9999C19.6 15.7496 15.7496 19.5999 11 19.5999V21.5999C16.8542 21.5999 21.6 16.8541 21.6 10.9999H19.6ZM11 19.5999C6.25034 19.5999 2.39999 15.7496 2.39999 10.9999H0.399994C0.399994 16.8541 5.14578 21.5999 11 21.5999V19.5999ZM2.39999 10.9999C2.39999 6.25025 6.25034 2.3999 11 2.3999V0.399902C5.14578 0.399902 0.399994 5.14568 0.399994 10.9999H2.39999ZM11 2.3999C15.7496 2.3999 19.6 6.25025 19.6 10.9999H21.6C21.6 5.14568 16.8542 0.399902 11 0.399902V2.3999ZM13.687 6.89868L10.2929 10.2928L11.7071 11.707L15.1012 8.3129L13.687 6.89868ZM10.2929 10.2928L6.89877 13.6869L8.31299 15.1011L11.7071 11.707L10.2929 10.2928ZM15.1012 13.6869L11.7071 10.2928L10.2929 11.707L13.687 15.1011L15.1012 13.6869ZM11.7071 10.2928L8.31299 6.89868L6.89877 8.3129L10.2929 11.707L11.7071 10.2928Z" fill="white"/>
</svg>
